# xmcd
#
# Track frame offsets: 
#        150
#        18162
#        40032
#        59532
#        77457
#        94512
#        114002
#        128767
#        143360
#        157402
#        176402
#        191265
#        207627
#        227362
#        245795
#        260767
#        275242
#        289912
#
# Disc length: 4097 seconds
#
# Revision: 0
# Processed by: cddbd v1.5.2PL0 Copyright (c) Steve Scherf et al.
# Submitted via: ExactAudioCopy v0.99pb5
#
DISCID=f80fff12
DTITLE=Various Artist - Cowboy Love - 18 Country Ballads
DYEAR=1999
DGENRE=Country
TTITLE0=I Don't Want To Miss A Thing
TTITLE1=The Woman In Me (Need The Man In You)
TTITLE2=We Were In Love
TTITLE3=I Still Believe In You
TTITLE4=Give My Heart To You
TTITLE5=For My Broken Heart
TTITLE6=I Used To Love Her
TTITLE7=Blue
TTITLE8=Leave Me A Picture Of You
TTITLE9=I Can Still Make Cheyenne
TTITLE10=I Do (Cherish You)
TTITLE11=Now That I Found You
TTITLE12=Love Of My Life
TTITLE13=I Believe In You
TTITLE14=I Will Be There For You
TTITLE15=She Loved A Lot In Her Lifetime
TTITLE16=I Love You Enough To Let You Go
TTITLE17=Everywhere I Go
EXTD=
EXTT0=
EXTT1=
EXTT2=
EXTT3=
EXTT4=
EXTT5=
EXTT6=
EXTT7=
EXTT8=
EXTT9=
EXTT10=
EXTT11=
EXTT12=
EXTT13=
EXTT14=
EXTT15=
EXTT16=
EXTT17=
PLAYORDER=
